#!OML:ASF H:\Terrain\Patient Classification 1\Animal1\Tuesday\Animal1.ASF
:FULLY-SPECIFIED
:DEGREES
1222
root 17.0854 16.2398 -14.2732 -175.325 -120.292 -173.786
lowerback 6.0544 -3.8718 -6.51981
upperback -4.03629 -6.07948 -2.95661
thorax -7.31176 -2.7668 1.25315
lowerneck 4.01828 2.75633 -10.5986
upperneck 27.7678 -0.158777 14.2545
head 7.70502 -0.442996 6.68433
rclavicle 3.39922e-014 2.06736e-014
rhumerus 42.0267 -18.8683 5.1713
rradius 71.1948
rwrist -52.7761
rhand 25.0561 21.1196
rfingers 7.12502
rthumb 49.2126 -0.506973
lclavicle 3.39922e-014 2.06736e-014
lhumerus 31.0744 -15.3613 -2.42096
lradius 79.2477
lwrist -6.04903
lhand 53.5933 22.0882
lfingers 7.12502
lthumb 72.105 -710.415
rfemur -30.4239 -9.86494 17.9364
rtibia 45.6037
rfoot -3.61523 -20.8819
rtoes -17.2911
lfemur -20.3292 -1.72808 -2.15392
ltibia 29.6223
lfoot 0.252697 23.2157
ltoes 21.0485
1223
root 17.0352 16.2961 -14.4293 -175.827 -120.84 -173.323
lowerback 6.1157 -3.67141 -6.86663
upperback -3.86415 -5.84451 -3.08435
thorax -7.15934 -2.64526 1.28203
lowerneck 4.08585 2.27264 -9.40398
upperneck 28.1307 -0.80801 13.6226
head 7.92756 -0.689848 6.23357
rclavicle 3.33958e-014 1.90833e-014
rhumerus 41.1196 -18.5022 5.58635
rradius 72.4574
rwrist -54.8639
rhand 26.9422 21.6126
rfingers 7.12502
rthumb 50.9381 0.896653
lclavicle 3.33958e-014 1.90833e-014
lhumerus 32.0484 -15.9682 -3.52396
lradius 79.1276
lwrist -5.43388
lhand 53.4649 24.8998
lfingers 7.12502
lthumb 72.0357 -707.269
rfemur -30.3651 -9.87447 18.2259
rtibia 45.5384
rfoot -2.4137 -20.5884
rtoes -18.9671
lfemur -21.2716 0.773717 -3.91187
ltibia 31.4768
lfoot -0.70087 21.5778
ltoes 21.938
1224
root 16.9933 16.3556 -14.5811 -175.847 -121.486 -173.375
lowerback 6.19099 -3.84107 -7.07215
upperback -3.72489 -6.06843 -2.90917
thorax -6.99844 -2.74575 1.59987
lowerneck 3.75824 2.06204 -8.67148
upperneck 28.9132 -1.04626 12.8653
head 8.30497 -0.789495 5.85757
rclavicle 2.99171e-014 1.74931e-014
rhumerus 41.2556 -18.1485 5.63387
rradius 73.3908
rwrist -57.119
rhand 28.3397 22.1387
rfingers 7.12502
rthumb 52.2082 2.15755
lclavicle 2.99171e-014 1.74931e-014
lhumerus 31.8702 -16.5285 -4.50509
lradius 78.92
lwrist -5.09368
lhand 51.9105 25.1633
lfingers 7.12502
lthumb 71.1491 -703.167
rfemur -30.3979 -10.0243 18.783
rtibia 45.4962
rfoot -0.884416 -20.1476
rtoes -21.1749
lfemur -22.383 3.71732 -5.58714
ltibia 33.5001
lfoot -1.15138 20.0814
ltoes 23.1271
1225
root 16.9454 16.4217 -14.7256 -175.319 -122.142 -173.976
lowerback 6.02293 -3.97515 -6.97027
upperback -3.48552 -6.16848 -2.56067
thorax -6.60498 -2.80596 1.89252
lowerneck 3.94493 2.00422 -8.7227
upperneck 28.676 -1.10011 12.8362
head 8.19594 -0.82211 5.84209
rclavicle 5.07895e-014 2.46493e-014
rhumerus 41.224 -17.968 5.97328
rradius 74.3549
rwrist -59.2137
rhand 30.2321 21.8845
rfingers 7.12502
rthumb 53.9155 2.9895
lclavicle 5.07895e-014 2.46493e-014
lhumerus 31.4424 -16.8204 -4.98921
lradius 78.6236
lwrist -5.18417
lhand 48.8645 23.414
lfingers 7.12502
lthumb 69.1914 -698.432
rfemur -30.4216 -10.059 19.5901
rtibia 45.3744
rfoot 0.970184 -19.4311
rtoes -23.4407
lfemur -23.5601 6.57808 -7.00576
ltibia 35.7576
lfoot -1.78915 19.0114
ltoes 25.6384
1226
root 16.8929 16.4982 -14.8649 -174.816 -122.732 -174.545
lowerback 5.7178 -3.9456 -6.81532
upperback -3.20473 -6.0304 -2.17484
thorax -6.10972 -2.756 2.15716
lowerneck 5.009 2.15789 -9.40059
upperneck 27.2797 -0.939164 13.6404
head 7.49167 -0.765159 6.18756
rclavicle 5.31749e-014 1.98785e-014
rhumerus 40.7728 -17.9165 6.71935
rradius 75.3021
rwrist -60.7305
rhand 32.8401 20.5517
rfingers 7.12502
rthumb 56.2406 3.35005
lclavicle 5.31749e-014 1.98785e-014
lhumerus 31.2843 -17.0852 -5.12931
lradius 78.2795
lwrist -5.21381
lhand 46.2899 23.5568
lfingers 7.12502
lthumb 67.3559 -693.753
rfemur -30.3953 -10.1926 20.3252
rtibia 45.1626
rfoot 2.4914 -18.1727
rtoes -25.1146
lfemur -24.6672 8.94017 -8.45253
ltibia 38.1719
lfoot -1.85576 18.3277
ltoes 23.6175
1227
root 16.8527 16.5716 -14.9965 -174.125 -123.463 -175.321
lowerback 5.62545 -4.14276 -6.58206
upperback -3.05912 -6.21307 -1.6338
thorax -5.84662 -2.85265 2.59068
lowerneck 3.82304 1.88157 -9.06076
upperneck 28.8597 -1.18798 12.5509
head 8.29817 -0.90782 5.80844
rclavicle 1.0635e-014 2.22639e-014
rhumerus 41.0854 -17.8058 7.21898
rradius 75.7558
rwrist -61.6662
rhand 34.4095 19.5235
rfingers 7.12502
rthumb 57.6216 3.46731
lclavicle 1.0635e-014 2.22639e-014
lhumerus 30.601 -17.5621 -5.29771
lradius 77.9543
lwrist -4.95907
lhand 44.7587 23.9768
lfingers 7.12502
lthumb 66.2023 -690.984
rfemur -30.4569 -10.7678 21.1468
rtibia 44.9209
rfoot 4.33957 -16.2301
rtoes -28.3327
lfemur -25.8594 10.8368 -9.7881
ltibia 40.5704
lfoot -1.49063 17.7997
ltoes 19.4271
1228
root 16.8176 16.6384 -15.1226 -172.632 -124.287 -176.779
lowerback 5.32643 -4.44443 -5.82579
upperback -2.98553 -6.48518 -1.05581
thorax -5.58222 -3.0139 2.76675
lowerneck 3.33246 1.68522 -9.31803
upperneck 29.5761 -1.43055 12.2455
head 8.67628 -1.06898 5.77026
rclavicle 1.07046e-013 1.90833e-014
rhumerus 41.5815 -17.7376 7.47188
rradius 75.7457
rwrist -62.0409
rhand 35.4792 19.6288
rfingers 7.12502
rthumb 58.5539 4.41498
lclavicle 1.07046e-013 1.90833e-014
lhumerus 29.7973 -17.9314 -5.6396
lradius 77.7242
lwrist -4.52616
lhand 43.7078 23.5169
lfingers 7.12502
lthumb 65.3882 -689.966
rfemur -30.8378 -11.4082 22.3909
rtibia 44.6999
rfoot 6.51276 -13.7554
rtoes -32.0838
lfemur -27.2601 12.3771 -10.6136
ltibia 42.855
lfoot -1.96026 17.2107
ltoes 21.3575
1229
root 16.7823 16.7068 -15.2501 -171.323 -124.911 -177.999
lowerback 4.9938 -4.77648 -5.23689
upperback -2.96808 -6.81314 -0.31434
thorax -5.3188 -3.19272 3.20125
lowerneck 2.90707 1.79891 -10.3733
upperneck 30.1694 -1.23061 12.2125
head 8.94369 -1.08671 5.99303
rclavicle 9.00495e-014 -5.56597e-015
rhumerus 42.3332 -17.8021 7.69551
rradius 75.8587
rwrist -62.1696
rhand 35.579 20.5172
rfingers 7.12502
rthumb 58.6404 5.38467
lclavicle 9.00495e-014 -5.56597e-015
lhumerus 28.4022 -18.2573 -5.62756
lradius 77.5179
lwrist -3.94258
lhand 42.8518 24.4361
lfingers 7.12502
lthumb 64.7128 -687.916
rfemur -31.3329 -11.801 23.4286
rtibia 44.5939
rfoot 8.12963 -10.9723
rtoes -34.44
lfemur -28.4432 13.6169 -11.4245
ltibia 44.9413
lfoot -2.60975 16.3732
ltoes 25.8354
1230
root 16.7478 16.7812 -15.3751 -170.603 -125.321 -178.781
lowerback 4.73155 -4.19398 -4.52037
upperback -2.80841 -5.96898 -0.498248
thorax -5.16268 -2.81165 2.5255
lowerneck 3.63083 1.10158 -8.94445
upperneck 29.7861 -2.28264 12.0479
head 8.80855 -1.45426 5.59513
rclavicle 1.03964e-013 2.62396e-014
rhumerus 39.6467 -17.3731 9.23
rradius 76.4644
rwrist -62.4769
rhand 34.6367 20.5045
rfingers 7.12502
rthumb 57.8202 4.62292
lclavicle 1.03964e-013 2.62396e-014
lhumerus 30.262 -18.4126 -6.49649
lradius 77.2354
lwrist -3.23341
lhand 41.2114 25.6363
lfingers 7.12502
lthumb 63.3915 -684.717
rfemur -31.6815 -12.1882 24.0463
rtibia 44.6482
rfoot 9.29425 -7.78616
rtoes -37.0236
lfemur -29.1692 14.7101 -12.4031
ltibia 46.7437
lfoot -2.11176 15.2155
ltoes 25.3061
1231
root 16.7159 16.851 -15.4917 -169.907 -125.615 -179.513
lowerback 4.55708 -4.10957 -4.08412
upperback -2.66001 -5.7864 -0.0718174
thorax -4.91664 -2.73692 2.68887
lowerneck 3.52122 0.985618 -8.9954
upperneck 29.7553 -2.36863 11.8558
head 8.83045 -1.50333 5.53026
rclavicle 8.11538e-014 1.98785e-014
rhumerus 39.2268 -17.4503 9.89227
rradius 76.7272
rwrist -62.3259
rhand 35.3037 18.9106
rfingers 7.12502
rthumb 58.4014 3.55496
lclavicle 8.11538e-014 1.98785e-014
lhumerus 29.8994 -18.5702 -6.64024
lradius 77.1659
lwrist -2.50054
lhand 39.4714 26.6474
lfingers 7.12502
lthumb 61.9556 -681.804
rfemur -32.1938 -12.7355 24.5082
rtibia 44.9619
rfoot 9.70986 -4.69896
rtoes -38.5546
lfemur -29.7646 15.8351 -13.4074
ltibia 48.2676
lfoot -0.633774 13.4057
ltoes 21.1732
